<?xml version="1.0" encoding="UTF-8"?>
<svg id="_Слой_2" data-name="Слой 2" xmlns="http://www.w3.org/2000/svg" viewBox="0 0 566.93 283.46">
  <defs>
    <style>
      .cls-1 {
        fill: #00ff2d;
      }
    </style>
  </defs>
  <g id="_Слой_1-2" data-name="Слой 1">
    <g>
      <polygon class="cls-1" points="0 147.52 57.59 147.52 57.59 228.31 57.59 236.73 57.59 236.74 48.67 236.74 48.67 234.58 48.67 228.31 48.67 156.45 0 156.45 0 283.46 106.25 283.46 106.25 100.66 48.67 100.66 48.67 64.71 57.59 64.71 57.59 91.74 106.25 91.74 106.25 17.84 0 17.84 0 147.52"/>
      <polygon class="cls-1" points="115.17 283.46 221.42 283.46 221.42 156.45 172.75 156.45 172.75 236.74 163.83 236.74 163.83 156.45 163.83 147.53 221.42 147.53 221.42 100.66 163.83 100.66 163.83 91.74 163.83 64.71 172.75 64.71 172.75 91.74 221.42 91.74 221.42 17.84 115.17 17.84 115.17 283.46"/>
      <polygon class="cls-1" points="403.09 156.45 403.09 163.55 403.09 236.74 394.17 236.74 394.17 163.55 394.17 156.45 394.17 17.84 345.51 17.84 345.51 283.46 451.76 283.46 451.76 17.84 403.09 17.84 403.09 156.45"/>
      <polygon class="cls-1" points="230.34 283.46 336.59 283.46 336.59 283.46 336.59 100.66 287.92 100.66 287.92 227.82 287.92 227.82 312.26 227.82 312.26 227.82 312.26 236.74 312.26 236.74 287.92 236.74 279 236.74 279 236.74 279 91.74 279 85.2 279 64.71 287.92 64.71 287.92 85.2 287.92 91.74 336.59 91.74 336.59 17.84 230.34 17.84 230.34 283.46 230.34 283.46"/>
      <polygon class="cls-1" points="518.26 47.95 509.34 39.03 509.34 17.84 460.68 17.84 460.68 283.46 509.34 283.46 509.34 107.85 518.26 116.77 518.26 283.46 566.93 283.46 566.93 17.84 518.26 17.84 518.26 47.95"/>
      <rect class="cls-1" x="115.17" y="0" width="48.66" height="8.92"/>
      <rect class="cls-1" x="172.75" y="0" width="48.66" height="8.92"/>
    </g>
  </g>
</svg>